<svg version="1" xmlns="http://www.w3.org/2000/svg" width="566.667" height="566.667" viewBox="0 0 425.000000 425.000000"><path d="M49 4.2c-5.6 3-6.4 11.8-1.3 15.8 3.5 2.7 8.5 2.6 12-.4 2.3-2 2.8-3.2 2.8-7 0-3.3-.6-5.1-2.1-6.6-2.6-2.6-8.1-3.5-11.4-1.8zM16 10.2c-3.4 1.8-5.3 6.2-4.6 10.2.8 4.3 3.5 6.6 8.5 7.3 3.5.5 4.4.2 7.2-2.6 2.8-2.8 3.1-3.7 2.6-7.3-.3-2.2-1.4-4.9-2.4-6-2.5-2.4-8.1-3.2-11.3-1.6zM16 46.3c-3.4 1.7-5.3 6.1-4.6 10.1.9 4.8 3.9 7.1 9.2 7.1 5.5 0 8.3-2.6 9.1-8.3.5-3.6.2-4.5-2.5-7.2-3.3-3.3-7-3.8-11.2-1.7zM52.9 48.9c-2.8 2.8-3.1 3.7-2.6 7.3.8 5.7 3.6 8.3 9.2 8.3 6.1 0 9-2.9 9-9 0-5.6-2.6-8.4-8.3-9.2-3.6-.5-4.5-.2-7.3 2.6zM207.5 77c-1.6.4-9.1.8-16.6.9l-13.7.1-.7 4.7c-1.9 12.8-16.5 14.1-19.6 1.7-1.4-5.3-2.9-5.6-7.1-1.3-2.5 2.5-3.6 2.9-6 2.4-6.6-1.5-11.8 3.6-11.8 11.4 0 2.2-.5 5.2-1.1 6.8-2.8 7.1-5 45.3-5.7 99.3-1.4 112.5-1.3 141.1.3 147.5.8 3.4 1.5 9 1.5 12.6 0 10 2.4 13.8 14 21.8l9.5 6.6 15.8.3c12.4.3 16.8 0 20.4-1.2 3.4-1.2 8.5-1.6 18.5-1.6 11 0 15-.4 19.6-1.9 3.1-1.1 8.6-2.5 12.2-3.1 3.6-.6 8.3-2 10.5-3.1 5.2-2.4 26.1-9.3 34.5-11.3 3.6-.9 11.2-2 17-2.5 5.8-.6 12.5-1.7 14.9-2.6 2.4-.8 5.4-1.5 6.7-1.5 1.3 0 4.7-.9 7.6-2.1 4.1-1.6 8.4-2.2 18.8-2.6 10.6-.4 14.4-.9 17.8-2.5 7.5-3.5 7.3-2.2 6.9-51.6-.5-57.8-.9-59.8-12.9-71.1-9.4-8.9-11.1-10-15.8-10.1-2 0-6.1-.9-9.3-2-3.1-1.1-7.8-2-10.4-2-5 0-17.2-2.2-21.8-4-3.2-1.2-44.2-1.3-57.6-.1-10.2.9-14.5 2.5-19.4 7.2-1.6 1.5-4.6 3.5-6.6 4.3-5.1 2.1-9.9 6.4-11.5 10.3-1 2.3-1.4 8.1-1.4 20.1v16.8l2.9 4.5c3.6 5.5 27.5 29.1 31.8 31.3 9.6 4.9 14 5.8 26.2 5.4 11.2-.3 11.9-.4 15.6-3.2 3.8-2.9 9.8-14 11.1-20.6 1.5-7.2-5.2-13.3-12.1-11-4 1.3-7.7 5.7-9.4 11.2-1.8 5.4-4.8 6-15.3 3.1-5.8-1.6-7-2.5-17.9-13.3-6.4-6.4-12.1-12.5-12.8-13.7-.6-1.2-1.1-6.5-1.1-11.7V246l4-2c2.3-1.2 5.9-3.7 8.1-5.7 3.8-3.5 4.4-3.7 13.7-4.4 16.5-1.4 41.9-1.1 47.6.5 9.7 2.7 14.7 3.6 19.9 3.6 2.8 0 7.9.9 11.2 2 3.3 1.1 7.1 2.2 8.5 2.5 4.1.8 11.8 8.1 12.9 12.3 2.7 10.5 3.2 19.1 2.9 50.7l-.3 33-12 .7c-8 .4-14 1.4-17.9 2.7-3.3 1.2-7.4 2.1-9.3 2.1-1.9 0-4.7.7-6.4 1.5-1.6.9-7.9 2-14 2.6-6.1.6-14.5 1.9-18.6 2.9-9 2.3-30.6 9.6-34.4 11.6-1.6.8-4.1 1.4-5.6 1.4-1.6 0-7 1.4-12.1 3-8.5 2.7-10.5 3-23 3-9.4 0-15 .5-17.7 1.5-2.3.8-7.8 1.4-12.8 1.5-9.8 0-12.4-.9-18.8-6.7-3.7-3.4-3.9-3.8-3.9-9.5 0-3.3-.7-8.7-1.6-12-.9-3.5-1.3-7.6-.9-9.7.5-3.4.6-20.2.6-126.5 0-24.2.3-44.4.7-45 .3-.6 1-8.1 1.4-16.6 1.2-22.2 2.3-33.1 3.6-36.3.7-1.6 1.2-4.9 1.2-7.5v-4.7l6.2-.2c3.5-.1 17.6-.7 31.3-1.3 13.8-.6 52.9-1.4 87-1.8 34.1-.4 62.8-1.1 63.8-1.6 2-.9 4.7-5.6 4.7-8.1 0-2.9-2.8-7.1-5.5-8.3-3-1.4-125.7-1.5-131-.2z"/><path d="M214.5 129.5c-7.2 1.9-10.9 6.3-12.4 14.9-1.6 9.2-.6 15.3 3.1 19 2.9 2.9 3 2.9 12.2 2.3 10.4-.6 14.8-2.3 17-6.5 4-7.8 2.7-21.3-2.7-25.8s-10.4-5.7-17.2-3.9zM303.1 130c-7.2 1.8-11.6 6.9-13.2 15.5-1.2 6.5-.6 17.3 1.1 20.5 2.4 4.6 12.5 6.6 18.2 3.6 1.4-.8 4.2-1.9 6.2-2.6 1.9-.6 4.6-2.4 6-4 2.9-3.5 4.8-11.6 3.9-16.2-.8-4.4-6-13.6-8.7-15.3-2.8-1.8-9.3-2.6-13.5-1.5z"/></svg>